<svg xmlns="http://www.w3.org/2000/svg" xmlns:xlink="http://www.w3.org/1999/xlink" width="400" height="400" viewBox="0 0 400 400">
  <defs>
    <clipPath id="clip-path">
      <rect id="長方形_8897" data-name="長方形 8897" width="309" height="377" transform="translate(-0.285 0.346)" fill="none" stroke="#707070" stroke-width="32"/>
    </clipPath>
    <clipPath id="clip-Info-case-04">
      <rect width="400" height="400"/>
    </clipPath>
  </defs>
  <g id="Info-case-04" clip-path="url(#clip-Info-case-04)">
    <g id="グループ_56864" data-name="グループ 56864" transform="translate(46.777 11.79)">
      <g id="グループ_56863" data-name="グループ 56863" transform="translate(-0.492 -0.136)" clip-path="url(#clip-path)">
        <path id="長方形_8896" data-name="長方形 8896" d="M0-16H269A16,16,0,0,1,285,0V261a16,16,0,0,1-16,16H0a16,16,0,0,1-16-16V0A16,16,0,0,1,0-16ZM253,16H16V245H253Z" transform="translate(19.715 19.346)"/>
        <path id="パス_124801" data-name="パス 124801" d="M273.458,168.7H34.709A45.761,45.761,0,0,1-11,123V71a16,16,0,0,1,32,0v52A13.725,13.725,0,0,0,34.709,136.7H257.458V71a16,16,0,0,1,32,0v81.7A16,16,0,0,1,273.458,168.7Z" transform="translate(14.986 205.386)"/>
        <path id="線_975" data-name="線 975" d="M121,16H0A16,16,0,0,1-16,0,16,16,0,0,1,0-16H121A16,16,0,0,1,137,0,16,16,0,0,1,121,16Z" transform="translate(93.715 97.346)"/>
        <path id="線_976" data-name="線 976" d="M121,16H0A16,16,0,0,1-16,0,16,16,0,0,1,0-16H121A16,16,0,0,1,137,0,16,16,0,0,1,121,16Z" transform="translate(93.715 163.346)"/>
      </g>
    </g>
  </g>
</svg>
