<?xml version="1.0" encoding="utf-8"?>
<!-- Generator: Adobe Illustrator 28.3.0, SVG Export Plug-In . SVG Version: 6.00 Build 0)  -->
<svg version="1.1" id="レイヤー_1" xmlns="http://www.w3.org/2000/svg" xmlns:xlink="http://www.w3.org/1999/xlink" x="0px"
	 y="0px" viewBox="0 0 400 400" style="enable-background:new 0 0 400 400;" xml:space="preserve">
<style type="text/css">
	.st0{fill:#1A1311;}
</style>
<path class="st0" d="M282.4,143.8c-10.7-19.2-26-31.3-26.6-31.8c-2.3-1.8-4.6-3.6-6.9-5.4c21.8-24,32.8-49.4,33.6-77.4
	c0.2-5.5-4.2-10.1-9.7-10.3c-0.1,0-0.2,0-0.3,0c-5.4,0-9.8,4.3-10,9.7c-0.2,7-1.2,13.8-3,20.5h-77.8c-9-8.6-16.6-16.4-22.6-23.4
	c-3.6-4.2-9.9-4.6-14.1-1c-4.2,3.6-4.6,9.9-1,14.1c6.8,7.9,15.5,16.8,25.8,26.6c0.6,0.8,1.3,1.4,2.1,2c12.6,11.8,27.6,24.8,44.9,39
	c-2.1,1.6-4.3,3.2-6.4,4.7c-50.9,37.6-99.1,73-101.2,118.6c-1.3,26.4,13,52.6,43.8,80.1l0.9,0.8c-22.5,22.9-35.1,46.5-37.2,58.8
	c-1,5.4,2.7,10.6,8.1,11.6c0.6,0.1,1.2,0.2,1.7,0.2c4.8,0,9-3.4,9.8-8.3c0.8-4.6,3.9-11.2,8.4-18.4h59l19.2,16.9
	c1.9,1.7,4.3,2.5,6.6,2.5c2.8,0,5.5-1.1,7.5-3.4c3.6-4.1,3.2-10.5-0.9-14.1l-48-42.2c36.5-30.8,73.6-63.3,92.1-91.5
	C296.4,197.6,297.2,170.4,282.4,143.8z M263.4,211.6H133.9c3.5-7.8,8.8-15.5,15.4-23.1h123.2C271.3,196.3,268.3,204,263.4,211.6z
	 M169.4,168.4c6.4-5.7,13.4-11.4,20.7-17.1c0.7,0.1,1.3,0.2,2,0.2h71.6c0.5,0.8,1,1.6,1.4,2.5c2.7,4.8,4.6,9.7,5.9,14.4H169.4z
	 M251.4,69.1c-4.6,8.5-10.6,16.7-18.1,24.9c-10.8-8.8-20.7-17.1-29.6-24.9H251.4z M243.4,127.7c0,0,1.7,1.4,4.3,3.8h-31.3
	c2-1.4,3.9-2.9,5.9-4.3c3.5-2.6,7.1-5.2,10.6-7.8C236.3,122.1,239.8,124.9,243.4,127.7z M159.2,334.4c3-3.6,6.2-7.1,9.4-10.4
	c0.1-0.1,0.1-0.1,0.2-0.2l12,10.6H159.2z M166.1,294.9c-6.4-5.7-11.9-11.3-16.6-16.8h49.8c-8.6,7.5-17,14.6-24.3,20.8
	c-0.8,0.6-1.4,1.4-1.9,2.1L166.1,294.9z M221.5,258.1h-85.8c-4.7-9.1-6.8-17.9-6.6-26.5h118.6C239.9,240.3,230.9,249.3,221.5,258.1z
	"/>
</svg>
